/* XPM */
static char * table_xpm[] = {
"32 32 8 1",
" 	c #000000000000",
".	c #FFFFFFFFFFFF",
"X	c #808080808080",
"o	c #000000008080",
"O	c #BEBEBEBEBEBE",
"+	c #D0D0B1B17878",
"@	c #00000000FFFF",
"#	c #FFFFD8D8C1C1",
"                                ",
"                                ",
"             .                  ",
"   XXXXXXXo ...  XXXXXXXXXXXO   ",
"   X+X+X+o ...@@  +X+X+X+X+XO   ",
"   XX+X+o ...@@..  +X+X+X+X+O   ",
"   X+X+o ...@@...@  +X+X+X+XO   ",
"   XX+o ...@@.@.@..  +X+X+X+O   ",
"   X+o ...@@...@...@  +X+X+XO   ",
"   Xo ...@@.@.@.@.@..  +X+X+O   ",
"   o ...@@...@...@...@  +X+XO   ",
"    ...@@.@.@.@.@.@.@..  +X+O   ",
"   @..@@...@...@...@...@  +XO   ",
"  .@@@@.@.@.@.@.@.@.@.@..  +O   ",
" ...@@...@...@...@...@...@  O   ",
" ..@@@@.@.@.@.@.@.@.@.@.@..     ",
"o @@..@@...@...@...@...@...@    ",
" o ...@@@.@.@.@.@ @.@.@.@.@..   ",
"  o .@..@@...@..#ooXXXo..@...@  ",
"   o ...@@@.@.@#o......o@.@.@.. ",
"   Xo .@..@@...o.#####..o..@..  ",
"   X+o ...@@@.@o#ooo###..o@.@   ",
"   XX+o .@..@@.oooXXo#.#..o.    ",
"   X+X+o ...@  o       .#..oX   ",
"   XX+X+o .@.##o#.ooX#.###..oX  ",
"   X+X+X+o ...#oo####X#####..oX ",
"   XX+X+X+o .@.@ooX##X#X####..oX",
"   X+X+X+X+o ...@oooooooXX###..X",
"   XX+X+X+X+o .@.@XXXX XoXX###..",
"   X+++++++++  ...@@. XXXoXX###.",
"   OOOOOOOOOO   .@.@   XXXoXX###",
"                 ..     XXXoXX##"};
