/* XPM */
static char * table1_xpm[] = {
"32 32 11 1",
" 	c #000000000000",
".	c #FFFFFFFF0000",
"X	c #FFFF00000000",
"o	c #808080808080",
"O	c #BEBEBEBEBEBE",
"+	c #D0D0B1B17878",
"@	c #00000000FFFF",
"#	c #000000008080",
"$	c #FFFFFFFFFFFF",
"%	c #FFFFD8D8C1C1",
"&	c #F0F0F2F2D0D0",
" ....                           ",
"  XXXX                          ",
"  .XX                           ",
"  .XXooooo.....  ....o.....oO   ",
"  .XXo+o+..XXXX@..XXXX+.XXXXO   ",
"  .XX+o+#.XX..XX.XX..XX.XX.XX   ",
"  .XXo+$ .XXXXXX.$ XXXX.XX.XX   ",
"  .XX+$$X.XX@$.$.XX $XX.XX.XX   ",
" ..XX$$XX.XXX$$X$XX$ XX.XX.XX   ",
"  XXXXXXX@ XXXX$@$XXX XXXXXXO   ",
"   # $$$@ $$$@$$$@$$$@ $XX+oO   ",
"    $$$@ $@$@$@$@$@$@$$$XXo+O   ",
"    $$@ $$$@$$$@$$$@$$$XXXXoO   ",
"  $@ @ $@$@$@$@$@$@$@$@$$  +O   ",
" $$$@ $$$@$$$@$$$@$$$@$$$@  O   ",
" $$@ @ $@$@$@$@$@$@$@$@$@$$     ",
"# @ $$@ $$$@$$$@$$$@$$$@$$$@    ",
" # $$$@@ $@$@$@$@ @$@$@$@$@$$   ",
"  # $@$$@ $$$@$$%##ooo#$$@$$$@  ",
"   # $$$@@ $@$@%#$$$$$$#@$@$@$$ ",
"   o# $@$$@ $$$#$%%%%%$$#$$@$$  ",
"   o+# $$$@@ $@#%###%%%$$#@$@   ",
"   oo+# $@$$@ $###oo#%%%$$#$    ",
"   o+o+# $$$@  #      %$%$$#o   ",
"   oo+o+# $@$%% %$##o %%%%$$#o  ",
"   o+o+o+# $$$%##%%%%%%%%%%$$#o ",
"   oo+o+o+# $@$@##o%%%%%&%%%$$#o",
"   o+o+o+o+# $$$@#######oo%%%$$o",
"   oo+o+o+o+# $@$@oooo o#oo%%%$$",
"   o+++++++++  $$$@@$   o#oo%%%$",
"   OOOOOOOOOO   $@$@     o#oo%%%",
"                 $$       o#oo%%"};
