/* XPM */
static char * xleap_icon_xpm[] = {
"32 32 11 1",
" 	c #808080808080",
".	c #C0C0C0C0C0C0",
"X	c #000000000000",
"o	c #FFFFFFFFFFFF",
"O	c #D6D65B5B2B2B",
"+	c #49494A4A4C4C",
"@	c #00000000FFFF",
"#	c #0000FFFFFFFF",
"$	c #CDCDB3B38B8B",
"%	c #FFFF0000FFFF",
"&	c #6B6BFFFF8D8D",
"                               .",
" XXXX.XXXXXX   XXXX.XXXXXXXXXXX.",
" XXXXX.XXXX XXX XX.XXXXXXoooXXX.",
" XXXXXX..X X.OXX.X.XXXXXo....XX.",
" XXXXXXXX.X..OXXX.XXXXXo...++.X.",
" XXXXXXXX XOO XXX.XXXXo...+...X.",
" XXXXXXXX XXXXXXX.XXXo...+...XX.",
" .XXXXXXXX.XXXXX.XXXo...+...+ X.",
" X.XXXXXXX..XXX.XXXo...+...+ XX.",
" X.XXXXXX.XX...X.Xo...+...+ XXX.",
" XX.  XXX.XXXXXXX.o..+...+ XXXX.",
" X XXX XX.XXXXXXXXo.+...+ XXXX..",
"  X.@XX..XXXXXXXXX.+...+ XXXX.X.",
" X..#XXX.XXXXXXXXo.+..+ XXXXX.X.",
" X@# XXX.XXXXXXoo..+.. XXXXX.XX.",
" XXXXXXX.XXXXXXX... XX.XX   XXX.",
"  XXXXX.XXXXXXXo+. XXX.X XXX XX.",
" X.XXX.XXXXXXXo.XX XXXX X.$XX.X.",
" X....XXXXXXXo.XXXXXXX X..%XXX..",
" X.XXX.XXXXXo.XXXXXXXX X$% XXX..",
" .XXXXX.XXXo.XXXXXXXXX.XXXXXXX..",
" .XXXXXX.Xo.XXXXXXXXX.X XXXXX.X.",
".XXXXXXXX..XXXXXXXXXX.XX.XXX.XX.",
" XXXXXXXo..XXX   XXX.XXXX...XXX.",
" XXXXXXo.XX.X XXX XX.XXXXXXX.XX.",
" XXXXoo.XXXX.X.&XX..XXXXXXXXX.X.",
" XXXo...XXX X..&XXX.XXXXXXXXXX..",
" XXo... XXX X&& XXX.XXXXXXXXXXX.",
" XX... XXXX.XXXXXXX.XXXXXXXXXXX.",
" XXX. XXX..X XXXXX.X..XXXXXXXXX.",
" XXXXXXX.XXXX.XXX.XXXX.XXXXXXXX.",
"................................"};
